<svg width="35" height="36" viewBox="0 0 35 36" fill="none" xmlns="http://www.w3.org/2000/svg">
<path d="M25.75 1.38428H9.25C4.69365 1.38428 1 5.05659 1 9.58661V25.9913C1 30.5213 4.69365 34.1936 9.25 34.1936H25.75C30.3063 34.1936 34 30.5213 34 25.9913V9.58661C34 5.05659 30.3063 1.38428 25.75 1.38428Z" stroke="white" stroke-width="2" stroke-linecap="round" stroke-linejoin="round"/>
<path d="M24.9243 16.2709C25.1402 17.7189 24.8915 19.1977 24.2134 20.4971C23.5352 21.7964 22.4623 22.8501 21.1471 23.5082C19.832 24.1663 18.3416 24.3954 16.8879 24.1628C15.4343 23.9303 14.0914 23.2479 13.0503 22.2128C12.0091 21.1777 11.3228 19.8426 11.0889 18.3974C10.855 16.9522 11.0854 15.4704 11.7474 14.1628C12.4093 12.8553 13.4691 11.7886 14.776 11.1144C16.0829 10.4402 17.5704 10.1928 19.0268 10.4076C20.5124 10.6266 21.8878 11.3148 22.9497 12.3707C24.0117 13.4265 24.704 14.7939 24.9243 16.2709Z" stroke="white" stroke-width="2" stroke-linecap="round" stroke-linejoin="round"/>
<circle cx="26.5" cy="8.5" r="1.5" fill="white"/>
</svg>
