<svg width="38" height="32" viewBox="0 0 38 32" fill="none" xmlns="http://www.w3.org/2000/svg">
<path d="M37 1.38872C35.433 2.4741 33.698 3.30424 31.8618 3.84717C30.8763 2.73446 29.5665 1.94579 28.1097 1.58785C26.6528 1.2299 25.1192 1.31994 23.7161 1.84579C22.3131 2.37163 21.1084 3.30792 20.2649 4.52801C19.4214 5.74811 18.9799 7.19314 19 8.66767V10.2745C16.1243 10.3477 13.2748 9.72146 10.7053 8.45147C8.13576 7.18148 5.92597 5.3072 4.27273 2.99555C4.27273 2.99555 -2.27273 17.4571 12.4545 23.8844C9.0845 26.1307 5.06989 27.257 1 27.0981C15.7273 35.1322 33.7273 27.0981 33.7273 8.61947C33.7258 8.17189 33.6819 7.72542 33.5964 7.2858C35.2664 5.66851 36.445 3.62657 37 1.38872V1.38872Z" stroke="white" stroke-width="2" stroke-linecap="round" stroke-linejoin="round"/>
</svg>
